<svg width="17" height="16" viewBox="0 0 17 16" fill="none" xmlns="http://www.w3.org/2000/svg">
<path fill-rule="evenodd" clip-rule="evenodd" d="M2.88967 4.61118H15.4702C15.9198 4.61118 16.2844 4.97572 16.2844 5.4254C16.2844 5.87508 15.9198 6.23962 15.4702 6.23962H0.814219C0.364539 6.23962 0 5.87508 0 5.4254C0 5.00941 0.311971 4.66627 0.714717 4.6172L3.76631 1.15118C4.06347 0.813675 4.57796 0.780961 4.91547 1.07812C5.25298 1.37527 5.2857 1.88977 4.98854 2.22727L2.88967 4.61118ZM15.854 11.0292C16.1102 10.892 16.2846 10.6218 16.2846 10.3108C16.2846 9.86112 15.92 9.49658 15.4704 9.49658L0.814418 9.49658C0.364737 9.49658 0.000199025 9.86112 0.000198985 10.3108C0.000198946 10.7605 0.364737 11.125 0.814418 11.125L13.6287 11.125L11.296 13.7745C10.9989 14.112 11.0316 14.6265 11.3691 14.9237C11.7066 15.2208 12.2211 15.1881 12.5183 14.8506L15.7465 11.1839C15.7891 11.1356 15.8249 11.0836 15.854 11.0292Z" fill="#610BEF"/>
</svg>
