<svg width="24" height="24" viewBox="0 0 24 24" fill="none" xmlns="http://www.w3.org/2000/svg">
<path fill-rule="evenodd" clip-rule="evenodd" d="M17.1591 5.2142H17.6818C20.5568 5.2142 22.9091 7.68409 22.9091 10.6114C22.9091 11.9835 22.3864 13.2642 21.5152 14.2705C21.1667 14.6364 20.6439 14.7278 20.2955 14.3619C19.947 13.996 19.8598 13.4472 20.2083 13.0813C20.7311 12.3494 21.0795 11.5261 21.0795 10.6114C21.0795 8.59886 19.5114 6.95227 17.5947 6.95227C17.3879 6.95227 17.1811 7.00955 16.9311 7.07878C16.8652 7.09704 16.7962 7.11613 16.7235 7.13523C16.2879 7.2267 15.7652 6.95227 15.678 6.49489C14.9811 3.75057 12.5417 1.82955 9.84091 1.82955C6.44318 1.82955 3.74242 4.66534 3.74242 8.23295C3.74242 10.0625 4.52652 11.8006 5.83333 13.0813C6.18182 13.4472 6.26894 13.996 5.92045 14.3619C5.74621 14.5449 5.48485 14.6364 5.22348 14.6364C5.04924 14.6364 4.78788 14.5449 4.70076 14.4534C2.95833 12.8068 2 10.6114 2 8.23295C2 3.65909 5.48485 0 9.84091 0C13.0644 0 15.9394 2.10398 17.1591 5.2142ZM15.4035 18.4969L13.1218 20.7786L13.1218 11.3122C13.1218 10.8053 12.7109 10.3944 12.204 10.3944C11.6971 10.3944 11.2862 10.8053 11.2862 11.3122L11.2862 20.7601L8.92719 18.4011C8.57537 18.0493 8.00495 18.0493 7.65312 18.4011C7.3013 18.753 7.3013 19.3234 7.65312 19.6752L11.325 23.3471C11.4386 23.7248 11.7892 24 12.204 24C12.5952 24 12.9292 23.7553 13.0613 23.4106L16.6893 19.7827C17.0443 19.4276 17.0443 18.852 16.6893 18.4969C16.3342 18.1419 15.7586 18.1419 15.4035 18.4969Z" fill="#FCFCFC"/>
</svg>
