<svg width="19" height="18" viewBox="0 0 19 18" fill="none" xmlns="http://www.w3.org/2000/svg">
<g clip-path="url(#clip0_18_39754)">
<path d="M15.5 2.25H14.75V1.5C14.75 1.0875 14.4125 0.75 14 0.75C13.5875 0.75 13.25 1.0875 13.25 1.5V2.25H5.75V1.5C5.75 1.0875 5.4125 0.75 5 0.75C4.5875 0.75 4.25 1.0875 4.25 1.5V2.25H3.5C2.675 2.25 2 2.925 2 3.75V15.75C2 16.575 2.675 17.25 3.5 17.25H15.5C16.325 17.25 17 16.575 17 15.75V3.75C17 2.925 16.325 2.25 15.5 2.25ZM14.75 15.75H4.25C3.8375 15.75 3.5 15.4125 3.5 15V6H15.5V15C15.5 15.4125 15.1625 15.75 14.75 15.75Z" fill="#6E7191"/>
</g>
<defs>
<clipPath id="clip0_18_39754">
<rect width="18" height="18" fill="white" transform="translate(0.5)"/>
</clipPath>
</defs>
</svg>
