<svg width="24" height="24" viewBox="0 0 24 24" fill="none" xmlns="http://www.w3.org/2000/svg">
<path d="M11.5471 2.04688C11.0721 2.04688 10.7554 2.36615 10.7554 2.68561V20.4081C10.7554 20.8872 11.0721 21.0469 11.5471 21.0469C12.0219 21.0469 12.3386 20.7274 12.3386 20.4081V2.68561C12.3386 2.36615 12.0217 2.04688 11.5471 2.04688ZM4.26433 4.76108H8.69729C9.17229 4.76108 9.48877 4.44181 9.48877 4.12235C9.48877 3.80307 9.17211 3.48361 8.69729 3.48361H4.26433C3.15618 3.48361 2.04785 4.44162 2.04785 5.55927V17.8534C2.04785 18.971 2.99785 19.929 4.26433 19.929H8.69729C9.17229 19.929 9.48877 19.6098 9.48877 19.2905C9.48877 18.8116 9.17211 18.6518 8.69729 18.6518H4.26433C3.78933 18.6518 3.47285 18.3325 3.47285 18.0132V5.71909C3.47267 5.08036 3.78933 4.76108 4.26433 4.76108ZM15.9799 18.4923H14.5551C14.0801 18.4923 13.7634 18.8116 13.7634 19.1309C13.7634 19.6098 14.0801 19.7696 14.5551 19.7696H15.9799C16.4549 19.7696 16.7715 19.4501 16.7715 19.1309C16.6132 18.8116 16.2965 18.4923 15.9799 18.4923ZM13.7634 4.12253C13.7634 4.60144 14.0801 4.76127 14.5551 4.76127H16.7715V3.4838H14.5551C14.0801 3.4838 13.7634 3.64343 13.7634 4.12253ZM19.6212 11.6266H21.046V7.47529H19.6212V11.6266ZM19.6212 17.8536C19.6212 18.3325 19.3045 18.4923 18.8295 18.4923H18.0378V19.9292H18.8295C19.9378 19.9292 21.046 18.9712 21.046 17.8536V17.215H19.6212V17.8536ZM18.8295 3.4838H18.0378V4.92072H18.8295C19.3045 4.92072 19.6212 5.23999 19.6212 5.55945V6.19819H21.046V5.55945C21.046 4.44181 20.096 3.4838 18.8295 3.4838ZM19.6212 15.7779H21.046V13.0635H19.6212V15.7779Z" fill="#6E7191"/>
</svg>
