<svg width="24" height="24" viewBox="0 0 24 24" fill="none" xmlns="http://www.w3.org/2000/svg">
<path fill-rule="evenodd" clip-rule="evenodd" d="M21 8.77193L14.0208 1.79274C12.8492 0.62117 10.9497 0.621169 9.77817 1.79274L3 8.57092V23.0856H10V17.0856C10 15.981 10.8954 15.0856 12 15.0856C13.1046 15.0856 14 15.981 14 17.0856V23.0856H21V8.77193ZM11.1924 3.20696L5 9.39934V21.0856H8V17.0856C8 14.8764 9.79086 13.0856 12 13.0856C14.2091 13.0856 16 14.8764 16 17.0856V21.0856H19V9.60035L12.6066 3.20696C12.2161 2.81643 11.5829 2.81643 11.1924 3.20696Z" fill="#6E7191"/>
</svg>
