<svg width="24" height="24" viewBox="0 0 24 24" fill="none" xmlns="http://www.w3.org/2000/svg">
<g clip-path="url(#clip0_2720_71095)">
<path d="M11.2288 19.455L21.3592 9.32201C21.4047 9.27648 21.4261 9.21487 21.4208 9.15326L20.7378 1.08005C20.719 0.871119 20.5556 0.707726 20.3467 0.688976L12.2735 0.00861877C12.2119 0.00326163 12.1476 0.0246901 12.1047 0.0702258L1.97436 10.2006C1.93448 10.2409 1.91211 10.2952 1.91211 10.3519C1.91211 10.4086 1.93448 10.463 1.97436 10.5033L10.9261 19.455C11.0092 19.5408 11.1458 19.5408 11.2288 19.455ZM12.9056 1.9988L18.9217 2.50773L19.4306 8.5238L11.0761 16.8756L4.55115 10.3533L12.9056 1.9988ZM14.517 6.9871C14.6364 7.10649 14.7782 7.20119 14.9342 7.26579C15.0902 7.33039 15.2574 7.36364 15.4262 7.36363C15.5951 7.36361 15.7623 7.33035 15.9183 7.26572C16.0743 7.20109 16.216 7.10637 16.3354 6.98697C16.4548 6.86757 16.5495 6.72582 16.6141 6.56981C16.6787 6.41381 16.7119 6.24662 16.7119 6.07777C16.7119 5.90892 16.6786 5.74172 16.614 5.58573C16.5494 5.42974 16.4547 5.28801 16.3353 5.16862C16.2159 5.04923 16.0741 4.95454 15.9181 4.88993C15.7621 4.82533 15.5949 4.79208 15.4261 4.79209C15.2572 4.79211 15.09 4.82538 14.934 4.89C14.778 4.95463 14.6363 5.04935 14.5169 5.16875C14.3975 5.28816 14.3028 5.42991 14.2382 5.58591C14.1736 5.74191 14.1404 5.90911 14.1404 6.07796C14.1404 6.24681 14.1737 6.414 14.2383 6.56999C14.3029 6.72598 14.3976 6.86772 14.517 6.9871ZM22.1172 12.7452L21.0565 11.6872C21.0162 11.6473 20.9618 11.6249 20.9052 11.6249C20.8485 11.6249 20.7941 11.6473 20.7538 11.6872L11.0574 21.3649L4.69311 15.0167C4.65284 14.9768 4.59845 14.9544 4.54177 14.9544C4.48509 14.9544 4.43071 14.9768 4.39043 15.0167L3.32972 16.0747C3.28984 16.115 3.26747 16.1694 3.26747 16.226C3.26747 16.2827 3.28984 16.3371 3.32972 16.3774L9.844 22.8809L10.9047 23.939C10.9878 24.022 11.1244 24.022 11.2074 23.939L22.1172 13.0479C22.2003 12.9649 22.2003 12.8283 22.1172 12.7452Z" fill="#6E7191"/>
</g>
<defs>
<clipPath id="clip0_2720_71095">
<rect width="24" height="24" fill="white"/>
</clipPath>
</defs>
</svg>
