<svg width="24" height="24" viewBox="0 0 24 24" fill="none" xmlns="http://www.w3.org/2000/svg">
<path d="M16.4232 2.25C17.8062 2.25181 19.132 2.802 20.1099 3.7799C21.0878 4.75781 21.638 6.08361 21.6398 7.46657V17.2963C21.638 18.6791 21.0878 20.0047 20.1098 20.9823C19.1319 21.96 17.806 22.5098 16.4232 22.5111H6.59352C5.21026 22.5093 3.8842 21.9589 2.90625 20.9806C1.9283 20.0024 1.37831 18.6761 1.37695 17.2929V7.46657C1.37877 6.08361 1.92895 4.75781 2.90686 3.7799C3.88476 2.802 5.21056 2.25181 6.59352 2.25H16.4232ZM16.4232 4.31914H6.59352C5.75905 4.32005 4.95902 4.65195 4.36896 5.24201C3.7789 5.83207 3.447 6.6321 3.4461 7.46657V17.2963C3.4461 19.0311 4.85695 20.4437 6.59352 20.4437H16.4232C17.2576 20.4428 18.0574 20.1109 18.6472 19.5207C19.237 18.9306 19.5685 18.1306 19.569 17.2963V7.46657C19.568 6.6324 19.2364 5.83262 18.6467 5.24261C18.057 4.6526 17.2574 4.3205 16.4232 4.31914ZM16.8347 8.90314C17.1095 8.90314 17.3731 9.01232 17.5674 9.20666C17.7618 9.40101 17.871 9.66459 17.871 9.93943C17.871 10.2143 17.7618 10.4779 17.5674 10.6722C17.3731 10.8665 17.1095 10.9757 16.8347 10.9757H15.9604L12.2404 15.4791C12.1435 15.5968 12.0218 15.6916 11.884 15.7568C11.7462 15.822 11.5957 15.856 11.4432 15.8563L11.3764 15.8546C11.2134 15.8443 11.0552 15.7954 10.9148 15.7119C10.7744 15.6285 10.6559 15.5129 10.569 15.3746L9.06895 13.0003L6.95181 15.3489C6.86064 15.4498 6.75047 15.5318 6.62759 15.5902C6.50472 15.6486 6.37155 15.6822 6.23568 15.6892C6.09982 15.6961 5.96392 15.6762 5.83575 15.6306C5.70757 15.585 5.58964 15.5146 5.48867 15.4234C5.3877 15.3323 5.30568 15.2221 5.24729 15.0992C5.1889 14.9763 5.15528 14.8432 5.14835 14.7073C5.14143 14.5714 5.16133 14.4355 5.20693 14.3074C5.25253 14.1792 5.32292 14.0613 5.4141 13.9603L8.44495 10.5969C8.55254 10.4788 8.68585 10.3872 8.83456 10.3289C8.98326 10.2707 9.14337 10.2475 9.30249 10.2611C9.46161 10.2747 9.61547 10.3247 9.75214 10.4073C9.88882 10.4899 10.0047 10.6029 10.0907 10.7374L11.5581 13.0586L14.673 9.28029C14.7701 9.1624 14.892 9.06745 15.0301 9.00224C15.1683 8.93704 15.3191 8.9032 15.4718 8.90314H16.833H16.8347Z" fill="#6E7191"/>
</svg>
