<svg width="24" height="24" viewBox="0 0 24 24" fill="none" xmlns="http://www.w3.org/2000/svg">
<path d="M16.7502 20.2496C16.4002 20.2496 16.0502 20.1496 15.7502 19.9996L12.2502 18.1496C12.2002 18.0996 12.1502 18.0996 12.1002 18.1496L8.60018 19.9996C7.85018 20.3996 7.00019 20.2996 6.30019 19.8496C5.65019 19.3496 5.30019 18.5496 5.45019 17.7496L6.10019 13.8496C6.10019 13.7996 6.10019 13.7496 6.05019 13.6996L3.20019 10.8996C2.60019 10.2996 2.40019 9.44961 2.65019 8.69961C2.90019 7.94961 3.60019 7.34961 4.40019 7.24961L8.35019 6.69961C8.40019 6.69961 8.45019 6.64961 8.45019 6.59961L10.2002 3.04961C10.5502 2.29961 11.3002 1.84961 12.1502 1.84961C13.0002 1.84961 13.7002 2.29961 14.1002 3.04961L15.8502 6.59961C15.8502 6.64961 15.9002 6.69961 15.9502 6.69961L19.9002 7.24961C20.7002 7.34961 21.4002 7.94961 21.6502 8.69961C21.9002 9.44961 21.7002 10.3496 21.1002 10.8996L18.2502 13.6496C18.2002 13.6996 18.2002 13.7496 18.2002 13.7996L18.8502 17.6996C19.0002 18.4996 18.6502 19.3496 18.0002 19.7996C17.6502 20.1496 17.2002 20.2496 16.7502 20.2496ZM12.1502 16.1496C12.5002 16.1496 12.8502 16.2496 13.1502 16.3996L16.6502 18.2496C16.6502 18.2496 16.7502 18.2996 16.8002 18.2496C16.9002 18.1996 16.8502 18.0996 16.8502 18.0996L16.2002 14.1996C16.1002 13.4996 16.3002 12.7996 16.8002 12.2996L19.6502 9.49961C19.6502 9.49961 19.7002 9.44961 19.7002 9.34961C19.7002 9.24961 19.6002 9.24961 19.5502 9.24961L15.6002 8.69961C14.9002 8.59961 14.3002 8.14961 13.9502 7.49961L12.2002 3.94961C12.2002 3.94961 12.1502 3.84961 12.0502 3.84961C11.9502 3.84961 11.9002 3.89961 11.9002 3.94961L10.1502 7.49961C9.85019 8.14961 9.20018 8.59961 8.50019 8.69961L4.55019 9.24961C4.50019 9.24961 4.45019 9.24961 4.40019 9.34961C4.35019 9.44961 4.40019 9.49961 4.45019 9.49961L7.30019 12.2496C7.80019 12.7496 8.05019 13.4496 7.90019 14.1496L7.25019 18.0496C7.25019 18.0496 7.25019 18.1496 7.30019 18.1996C7.40019 18.2496 7.45019 18.1996 7.45019 18.1996L10.9502 16.3496C11.4502 16.2496 11.8002 16.1496 12.1502 16.1496Z" fill="#6E7191"/>
</svg>
