<svg width="32" height="32" viewBox="0 0 32 32" fill="none" xmlns="http://www.w3.org/2000/svg">
<rect width="32" height="32" rx="16" fill="url(#paint0_linear_2_13862)"/>
<path d="M0 7.0137C0 3.14014 3.14014 0 7.0137 0H24.9863C28.8599 0 32 3.14014 32 7.0137V24.9863C32 28.8599 28.8599 32 24.9863 32H7.0137C3.14014 32 0 28.8599 0 24.9863V7.0137Z" fill="url(#paint1_linear_2_13862)"/>
<path fill-rule="evenodd" clip-rule="evenodd" d="M21.516 11.3926C22.7101 12.0157 24.0384 12.3435 25.389 12.3457H27.4832V8.14392H25.389C24.8373 8.14416 24.2909 8.0357 23.7812 7.82474C23.2714 7.61377 22.8082 7.30444 22.418 6.91442C22.0278 6.52439 21.7183 6.06131 21.5071 5.55163C21.2959 5.04195 21.1872 3.18061 21.1872 2.62891H16.9872V11.9143L16.8727 11.8413L16.8465 11.8713L4.79095 3.8102C4.53938 3.64199 4.19909 3.70956 4.03087 3.96113C3.99245 4.01859 3.96633 4.08068 3.9519 4.1443C3.90773 4.28542 3.92049 4.44389 4.00026 4.58205L8.91063 13.0871C8.9431 13.1433 8.98403 13.1916 9.03088 13.2313C8.71721 13.388 8.41254 13.5647 8.11883 13.7609C6.73689 14.684 5.65974 15.9961 5.02361 17.5314C4.38748 19.0667 4.22094 20.7561 4.54507 22.3861C4.86919 24.016 5.66942 25.5133 6.84453 26.6884C8.01964 27.8635 9.51686 28.6637 11.1468 28.9878C12.7767 29.312 14.4662 29.1454 16.0015 28.5093C17.5368 27.8732 18.8489 26.796 19.772 25.4141C19.9438 25.1569 20.1006 24.8914 20.2422 24.6187C20.2796 24.6643 20.325 24.7045 20.3778 24.7373L26.7242 28.6708C27.0592 28.8785 27.4996 28.7035 27.6007 28.3225C27.6199 28.25 27.6247 28.1763 27.6165 28.1049C27.6369 27.9955 27.623 27.8769 27.5644 27.7637L22.0487 17.1153C22.0299 17.079 22.0076 17.0457 21.9824 17.0156L21.1872 15.6241V11.2115C21.2956 11.2744 21.4052 11.3348 21.516 11.3926ZM16.1176 12.7022L6.07809 5.98917L9.8597 12.5391C9.91532 12.6355 9.93836 12.7417 9.93224 12.845C10.843 12.5162 11.8087 12.3455 12.7873 12.3457H14.1861V16.5457H12.7873C12.545 16.5457 12.3043 16.5666 12.0678 16.6077C12.0692 16.6101 12.0706 16.6124 12.072 16.6147C12.0728 16.6162 12.0737 16.6176 12.0745 16.619L13.4372 18.9793L16.905 21.0227C16.9296 21.0372 16.9529 21.0533 16.9746 21.0709C16.983 20.9629 16.9872 20.8545 16.9872 20.7456V13.1905L16.592 12.9746C16.5273 12.9603 16.4642 12.9339 16.4058 12.8949L16.2255 12.7743L16.1098 12.7111L16.1176 12.7022ZM16.2442 21.9735L12.7457 19.8519C12.636 19.7853 12.5577 19.6865 12.5157 19.575L11.1254 17.1669C11.0804 17.089 11.0568 17.0047 11.0526 16.9206C10.8452 17.0147 10.6449 17.1259 10.4539 17.2535C9.7632 17.715 9.22488 18.3709 8.90699 19.1384C8.58911 19.9058 8.50593 20.7503 8.66799 21.565C8.83005 22.3797 9.23006 23.1281 9.81743 23.7155C10.4048 24.3028 11.1532 24.7029 11.9679 24.8649C12.7826 25.027 13.6271 24.9438 14.3945 24.6259C15.162 24.308 15.8179 23.7697 16.2794 23.079C16.4504 22.823 16.5919 22.5504 16.7023 22.2663L16.2442 21.9735ZM10.2712 16.9801C10.5696 16.7808 10.8889 16.6187 11.2221 16.496C11.2529 16.4667 11.2876 16.4406 11.326 16.4184C11.44 16.3526 11.568 16.3324 11.6885 16.3522C12.046 16.2628 12.4149 16.2169 12.7873 16.2169H13.8573V12.6745H12.7873C11.1904 12.6741 9.62929 13.1473 8.30143 14.0343C6.97358 14.9212 5.93857 16.182 5.32734 17.6572C4.7161 19.1325 4.55608 20.7558 4.86752 22.322C5.17896 23.8881 5.94788 25.3268 7.07701 26.4559C8.20614 27.585 9.64476 28.3539 11.2109 28.6654C12.7771 28.9768 14.4004 28.8168 15.8757 28.2056C17.3509 27.5943 18.6117 26.5593 19.4986 25.2315C20.3856 23.9036 20.8588 22.3425 20.8584 20.7457V10.6408L21.3522 10.9272C22.5787 11.6386 23.971 12.0145 25.389 12.0169L25.3895 12.0169L27.1545 12.0169V8.47269H25.3891C24.7943 8.47293 24.2051 8.35598 23.6554 8.12852C23.1058 7.90104 22.6063 7.5675 22.1856 7.14694C21.7648 6.72638 21.4311 6.22705 21.2034 5.67747C21.1341 5.51037 21.0832 5.26384 21.0432 5.00836C21.0018 4.74381 20.9676 4.43833 20.9405 4.13536C20.9022 3.70799 20.877 3.27605 20.8656 2.95767H17.316V20.7456C17.316 21.6413 17.0504 22.5169 16.5528 23.2617C16.0551 24.0064 15.3479 24.5869 14.5203 24.9296C13.6928 25.2724 12.7822 25.3621 11.9037 25.1874C11.0253 25.0126 10.2183 24.5813 9.58496 23.9479C8.9516 23.3146 8.52028 22.5076 8.34554 21.6292C8.1708 20.7507 8.26048 19.8401 8.60325 19.0126C8.94602 18.185 9.52648 17.4778 10.2712 16.9801ZM20.6882 23.5997L21.9486 24.3875L21.9409 24.3974L25.8385 26.761L21.1872 17.8309V20.7456C21.1874 21.7238 21.0169 22.6892 20.6882 23.5997Z" fill="white"/>
<defs>
<linearGradient id="paint0_linear_2_13862" x1="1.9726" y1="2.19178" x2="32" y2="32" gradientUnits="userSpaceOnUse">
<stop stop-color="#474496"/>
<stop offset="0.471875" stop-color="#0060E4"/>
<stop offset="1" stop-color="#00DCDB"/>
</linearGradient>
<linearGradient id="paint1_linear_2_13862" x1="1.9726" y1="2.19178" x2="32" y2="32" gradientUnits="userSpaceOnUse">
<stop stop-color="#474496"/>
<stop offset="0.471875" stop-color="#0060E4"/>
<stop offset="1" stop-color="#00DCDB"/>
</linearGradient>
</defs>
</svg>
