<svg width="166" height="12" viewBox="0 0 166 12" fill="none" xmlns="http://www.w3.org/2000/svg">
<path d="M0 0.287379H6.31456V2.43107H4.23301V11.7126H2.02718V2.43107H0V0.287379Z" fill="black"/>
<path d="M7.65049 0.287379H9.80971V11.7126H7.65049V0.287379Z" fill="black"/>
<path d="M12.2796 0.287379H14.4777V4.21748L17.5767 0.287379H20.1942L16.2019 5.38252L20.5825 11.7126H18.0039L14.4777 6.64078V11.7126H12.2796V0.287379Z" fill="black"/>
<path d="M21.0019 0.287379H27.3165V2.43107H25.235V11.7126H23.0291V2.43107H21.0019V0.287379Z" fill="black"/>
<path d="M34.2058 0C35.8214 0 37.2091 0.585113 38.3689 1.75534C39.534 2.92557 40.1165 4.3521 40.1165 6.03495C40.1165 7.70227 39.5417 9.11327 38.3922 10.268C37.2479 11.4227 35.8576 12 34.2214 12C32.5074 12 31.0835 11.4071 29.9495 10.2214C28.8155 9.0356 28.2485 7.62718 28.2485 5.99612C28.2485 4.90356 28.5126 3.89903 29.0408 2.98252C29.5689 2.06602 30.2939 1.3411 31.2155 0.807767C32.1424 0.269256 33.1392 0 34.2058 0ZM34.1825 2.12816C33.1262 2.12816 32.2382 2.49579 31.5184 3.23107C30.7987 3.96634 30.4388 4.90097 30.4388 6.03495C30.4388 7.29838 30.8919 8.29774 31.7981 9.03301C32.5023 9.60777 33.31 9.89515 34.2214 9.89515C35.2518 9.89515 36.1295 9.52233 36.8544 8.7767C37.5793 8.03107 37.9417 7.11197 37.9417 6.01942C37.9417 4.93204 37.5767 4.01295 36.8466 3.26214C36.1165 2.50615 35.2285 2.12816 34.1825 2.12816Z" fill="black"/>
<path d="M42.1825 0.287379H44.3806V4.21748L47.4796 0.287379H50.0971L46.1049 5.38252L50.4854 11.7126H47.9068L44.3806 6.64078V11.7126H42.1825V0.287379Z" fill="black"/>
<path d="M56.4971 0.287379H58.5786L63.4796 7.80583V0.287379H65.6544V11.7126H63.5651L58.6718 4.21748V11.7126H56.4971V0.287379Z" fill="black"/>
<path d="M71.7437 0.287379H73.9495L78.3456 11.7126H76.0854L75.1922 9.35922H70.532L69.6 11.7126H67.3398L71.7437 0.287379ZM72.8621 3.3165L71.3398 7.23884H74.3767L72.8621 3.3165Z" fill="black"/>
<path d="M79.1689 0.287379H81.4058L84.2796 8.40388L87.1922 0.287379H89.4291L85.3126 11.7126H83.2155L79.1689 0.287379Z" fill="black"/>
<path d="M91.0214 0.287379H93.1806V11.7126H91.0214V0.287379Z" fill="black"/>
<path d="M106.183 2.15146L104.652 3.66602C103.684 2.64078 102.555 2.12816 101.266 2.12816C100.142 2.12816 99.2 2.50097 98.4388 3.2466C97.6829 3.99223 97.3049 4.89838 97.3049 5.96505C97.3049 7.06796 97.6984 8.00259 98.4854 8.76893C99.2725 9.53528 100.243 9.91845 101.398 9.91845C102.149 9.91845 102.781 9.76052 103.293 9.44466C103.811 9.1288 104.228 8.6343 104.544 7.96117H101.235V5.91845H106.983L106.998 6.4C106.998 7.39935 106.739 8.34693 106.221 9.24272C105.704 10.1385 105.033 10.822 104.21 11.2932C103.386 11.7644 102.421 12 101.313 12C100.127 12 99.068 11.7437 98.1359 11.2311C97.2091 10.7133 96.4738 9.97799 95.9301 9.02524C95.3916 8.07249 95.1223 7.04466 95.1223 5.94175C95.1223 4.42977 95.622 3.11456 96.6214 1.99612C97.8071 0.665372 99.3502 0 101.25 0C102.245 0 103.174 0.183819 104.039 0.551456C104.769 0.862136 105.483 1.39547 106.183 2.15146Z" fill="black"/>
<path d="M112.474 0.287379H114.68L119.076 11.7126H116.816L115.922 9.35922H111.262L110.33 11.7126H108.07L112.474 0.287379ZM113.592 3.3165L112.07 7.23884H115.107L113.592 3.3165Z" fill="black"/>
<path d="M119.643 0.287379H125.957V2.43107H123.876V11.7126H121.67V2.43107H119.643V0.287379Z" fill="black"/>
<path d="M132.847 0C134.462 0 135.85 0.585113 137.01 1.75534C138.175 2.92557 138.757 4.3521 138.757 6.03495C138.757 7.70227 138.183 9.11327 137.033 10.268C135.889 11.4227 134.498 12 132.862 12C131.148 12 129.724 11.4071 128.59 10.2214C127.456 9.0356 126.889 7.62718 126.889 5.99612C126.889 4.90356 127.153 3.89903 127.682 2.98252C128.21 2.06602 128.935 1.3411 129.856 0.807767C130.783 0.269256 131.78 0 132.847 0ZM132.823 2.12816C131.767 2.12816 130.879 2.49579 130.159 3.23107C129.439 3.96634 129.08 4.90097 129.08 6.03495C129.08 7.29838 129.533 8.29774 130.439 9.03301C131.143 9.60777 131.951 9.89515 132.862 9.89515C133.893 9.89515 134.77 9.52233 135.495 8.7767C136.22 8.03107 136.583 7.11197 136.583 6.01942C136.583 4.93204 136.217 4.01295 135.487 3.26214C134.757 2.50615 133.869 2.12816 132.823 2.12816Z" fill="black"/>
<path d="M140.955 0.287379H143.262C144.526 0.287379 145.424 0.401294 145.957 0.629126C146.496 0.85178 146.928 1.2246 147.254 1.74757C147.581 2.27055 147.744 2.88932 147.744 3.60388C147.744 4.35469 147.562 4.98382 147.2 5.49126C146.843 5.99353 146.302 6.37411 145.577 6.63301L148.28 11.7126H145.903L143.332 6.87379H143.13V11.7126H140.955V0.287379ZM143.13 4.7534H143.814C144.507 4.7534 144.984 4.66278 145.243 4.48155C145.507 4.30032 145.639 4 145.639 3.58058C145.639 3.33204 145.574 3.11715 145.445 2.93592C145.315 2.74951 145.142 2.61748 144.924 2.53981C144.707 2.45696 144.308 2.41553 143.728 2.41553H143.13V4.7534Z" fill="black"/>
</svg>
