<svg width="24" height="24" viewBox="0 0 24 24" fill="none" xmlns="http://www.w3.org/2000/svg">
<path fill-rule="evenodd" clip-rule="evenodd" d="M8 9C8 11.2091 9.79086 13 12 13C14.2091 13 16 11.2091 16 9C16 6.79086 14.2091 5 12 5C9.79086 5 8 6.79086 8 9ZM10 9C10 10.1046 10.8954 11 12 11C13.1046 11 14 10.1046 14 9C14 7.89543 13.1046 7 12 7C10.8954 7 10 7.89543 10 9Z" fill="#6E7191"/>
<path fill-rule="evenodd" clip-rule="evenodd" d="M12 1C18.0751 1 23 5.92487 23 12C23 18.0751 18.0751 23 12 23C5.92487 23 1 18.0751 1 12C1 5.92487 5.92487 1 12 1ZM21 12C21 14.0902 20.2875 16.014 19.092 17.5417C17.4476 15.3889 14.8537 14 11.9355 14C9.05517 14 6.49084 15.3531 4.8435 17.4583C3.68697 15.9443 3 14.0524 3 12C3 7.02944 7.02944 3 12 3C16.9706 3 21 7.02944 21 12ZM12 21C14.1502 21 16.1243 20.2459 17.6723 18.9878C16.4065 17.1812 14.3089 16 11.9355 16C9.59156 16 7.51667 17.1521 6.24623 18.9209C7.80613 20.2191 9.81187 21 12 21Z" fill="#6E7191"/>
</svg>
